<?xml version="1.0" standalone="no"?>
<!DOCTYPE svg PUBLIC "-//W3C//DTD SVG 20010904//EN"
 "http://www.w3.org/TR/2001/REC-SVG-20010904/DTD/svg10.dtd">
<svg version="1.0" xmlns="http://www.w3.org/2000/svg"
 width="500.000000pt" height="500.000000pt" viewBox="0 0 500.000000 500.000000"
 preserveAspectRatio="xMidYMid meet">

<g transform="translate(0.000000,500.000000) scale(0.100000,-0.100000)"
fill="#000000" stroke="none">
<path d="M2224 4541 c-12 -5 -31 -22 -43 -37 -19 -24 -21 -39 -21 -141 0 -113
0 -115 29 -144 26 -25 37 -29 85 -29 l56 0 0 -40 c0 -32 -4 -40 -19 -40 -49 0
-223 -54 -314 -98 -222 -106 -413 -295 -526 -519 l-21 -43 -161 0 c-91 0 -169
-4 -180 -10 -22 -12 -26 -59 -7 -78 8 -8 58 -12 160 -12 81 0 148 -2 148 -4 0
-3 -9 -42 -20 -88 -35 -141 -37 -412 -4 -520 5 -17 -8 -18 -173 -18 -188 0
-203 -3 -203 -45 0 -42 15 -45 215 -45 l191 0 33 -79 c48 -117 141 -254 240
-352 320 -320 794 -420 1216 -257 440 169 725 589 725 1067 0 249 -73 451
-249 693 -13 18 -11 23 22 56 l37 37 59 -59 c50 -49 63 -58 84 -52 28 7 42 35
33 64 -7 21 -263 274 -295 291 -30 17 -61 -2 -61 -37 0 -18 15 -42 52 -79 l52
-53 -36 -37 -37 -37 -50 47 c-125 117 -349 227 -526 258 l-65 11 0 39 0 39 61
0 c54 0 64 3 90 29 29 29 29 31 29 140 0 60 -5 121 -11 134 -22 50 -36 52
-314 54 -143 1 -270 -2 -281 -6z m506 -171 l0 -80 -235 0 -235 0 0 80 0 80
235 0 235 0 0 -80z m-170 -215 l0 -35 -65 0 -65 0 0 35 0 35 65 0 65 0 0 -35z
m195 -164 c182 -50 324 -131 460 -263 104 -99 163 -180 220 -301 63 -132 86
-228 92 -380 6 -143 -5 -238 -44 -362 -132 -422 -547 -725 -993 -725 -159 0
-375 59 -511 140 -255 151 -414 364 -496 660 -27 99 -24 386 5 492 93 338 333
600 652 712 137 48 192 56 370 52 131 -3 181 -8 245 -25z"/>
<path d="M2460 3821 c-15 -30 -12 -97 6 -115 37 -37 74 -5 74 63 0 26 -5 52
-12 59 -18 18 -56 14 -68 -7z"/>
<path d="M2806 3341 l-197 -198 -47 24 c-54 27 -379 172 -404 180 -24 7 -61
-33 -53 -58 4 -11 26 -53 49 -92 23 -40 73 -130 112 -201 85 -158 108 -179
203 -184 78 -4 118 14 166 72 26 33 30 46 32 108 l2 71 189 191 c104 105 195
201 201 214 17 33 -9 72 -49 72 -4 0 -96 -89 -204 -199z m-320 -246 c55 -25
73 -39 83 -63 38 -92 -79 -176 -146 -104 -20 21 -153 246 -153 258 0 4 124
-48 216 -91z"/>
<path d="M1670 3042 c-32 -10 -41 -59 -14 -79 28 -20 91 -16 114 7 23 23 24
30 7 53 -14 20 -70 29 -107 19z"/>
<path d="M3224 3041 c-39 -17 -40 -61 -3 -81 31 -17 87 -12 109 10 23 23 24
30 8 53 -15 19 -84 30 -114 18z"/>
<path d="M2460 2281 c-18 -35 -12 -98 11 -115 22 -15 48 -11 61 8 12 18 9 101
-4 114 -18 18 -56 14 -68 -7z"/>
<path d="M820 3070 c-24 -24 -24 -29 -4 -58 15 -21 21 -22 194 -22 189 0 210
5 210 50 0 45 -21 50 -206 50 -161 0 -176 -2 -194 -20z"/>
<path d="M2059 1414 c-17 -21 0 -49 31 -49 31 0 48 28 31 49 -8 9 -21 16 -31
16 -10 0 -23 -7 -31 -16z"/>
<path d="M2329 1414 c-17 -21 0 -49 31 -49 31 0 48 28 31 49 -8 9 -21 16 -31
16 -10 0 -23 -7 -31 -16z"/>
<path d="M1490 1416 c0 -3 -31 -86 -69 -185 l-69 -181 33 0 c29 0 34 4 49 45
l18 45 73 0 73 0 18 -45 c15 -41 20 -45 50 -45 l34 0 -19 48 c-10 26 -42 109
-71 185 l-53 137 -33 0 c-19 0 -34 -2 -34 -4z m90 -223 c0 -2 -25 -3 -55 -3
-30 0 -55 2 -55 4 0 3 12 37 26 76 l27 71 28 -73 c16 -40 29 -74 29 -75z"/>
<path d="M2195 1235 l0 -185 33 0 32 0 0 185 0 185 -32 0 -33 0 0 -185z"/>
<path d="M2650 1354 l0 -65 -26 20 c-74 58 -174 -14 -174 -124 0 -47 22 -98
51 -119 34 -24 98 -21 126 6 l23 21 0 -21 c0 -18 6 -22 30 -22 l30 0 0 185 0
185 -30 0 -30 0 0 -66z m-25 -99 c51 -50 21 -155 -44 -155 -46 0 -71 34 -71
95 0 41 36 85 70 85 12 0 32 -11 45 -25z"/>
<path d="M3260 1353 c0 -64 -1 -66 -19 -49 -28 25 -83 31 -118 12 -77 -39 -85
-199 -12 -250 34 -24 98 -21 126 6 l23 21 0 -21 c0 -18 6 -22 30 -22 l30 0 0
185 0 185 -30 0 -30 0 0 -67z m-30 -91 c33 -27 39 -99 10 -134 -14 -19 -31
-28 -49 -28 -44 0 -63 21 -68 76 -8 84 51 131 107 86z"/>
<path d="M1789 1316 c-79 -45 -78 -210 2 -251 38 -20 92 -15 121 12 19 17 20
17 13 -22 -4 -22 -12 -46 -18 -52 -13 -18 -82 -16 -97 2 -12 14 -70 22 -70 9
0 -3 5 -14 10 -25 31 -56 162 -67 206 -16 29 34 36 83 32 232 l-3 120 -27 1
c-22 1 -28 -4 -28 -19 0 -19 -1 -19 -19 -3 -26 24 -90 30 -122 12z m101 -46
c29 -15 44 -73 30 -115 -19 -58 -65 -71 -105 -30 -64 63 -1 186 75 145z"/>
<path d="M2060 1190 l0 -140 30 0 30 0 0 140 0 140 -30 0 -30 0 0 -140z"/>
<path d="M2330 1190 l0 -140 30 0 30 0 0 140 0 140 -30 0 -30 0 0 -140z"/>
<path d="M2834 1320 c-24 -9 -54 -47 -54 -67 0 -20 44 -15 63 7 30 35 92 20
99 -25 3 -18 -4 -21 -61 -26 -54 -5 -69 -11 -88 -33 -50 -58 -14 -126 67 -126
31 0 50 6 67 22 l23 21 0 -21 c0 -17 6 -22 28 -22 l27 0 -5 117 -5 117 -34 23
c-35 24 -88 29 -127 13z m111 -172 c-18 -63 -115 -81 -115 -22 0 30 24 43 78
44 40 0 43 -2 37 -22z"/>
<path d="M3432 1310 c-58 -36 -77 -113 -46 -190 20 -49 55 -70 118 -70 33 0
52 6 75 26 17 14 31 29 31 34 0 17 -48 16 -70 -2 -30 -25 -56 -23 -85 7 -47
46 -36 55 70 55 95 0 95 0 95 25 0 35 -23 86 -48 109 -32 28 -100 31 -140 6z
m108 -50 c38 -38 27 -50 -45 -50 -71 0 -80 10 -45 48 26 27 64 28 90 2z"/>
</g>
</svg>
