<?xml version="1.0" standalone="no"?>
<!DOCTYPE svg PUBLIC "-//W3C//DTD SVG 20010904//EN"
 "http://www.w3.org/TR/2001/REC-SVG-20010904/DTD/svg10.dtd">
<svg version="1.0" xmlns="http://www.w3.org/2000/svg"
 width="500.000000pt" height="500.000000pt" viewBox="0 0 500.000000 500.000000"
 preserveAspectRatio="xMidYMid meet">

<g transform="translate(0.000000,500.000000) scale(0.100000,-0.100000)"
fill="#000000" stroke="none">
<path d="M1616 4318 c-14 -20 -16 -149 -16 -1180 l0 -1158 -103 0 c-67 0 -107
-4 -115 -12 -16 -16 -15 -63 2 -77 10 -8 367 -11 1352 -11 1246 0 1340 1 1352
17 33 45 -1 83 -76 83 l-52 0 0 580 c0 562 -1 580 -19 590 -12 6 -100 10 -215
10 l-196 0 0 570 c0 557 0 570 -20 590 -20 20 -33 20 -949 20 l-930 0 -15 -22z
m1804 -1208 l0 -1130 -270 0 -270 0 0 314 c0 273 -2 317 -16 330 -13 14 -54
16 -294 16 -240 0 -281 -2 -294 -16 -14 -13 -16 -57 -16 -330 l0 -314 -275 0
-275 0 0 1130 0 1130 855 0 855 0 0 -1130z m440 -590 l0 -540 -165 0 -165 0 0
540 0 540 165 0 165 0 0 -540z m-1342 -264 l2 -276 -80 0 -80 0 0 273 c0 151
2 276 4 278 2 2 37 3 78 2 l73 -1 3 -276z m252 2 l0 -278 -75 0 -75 0 0 273
c0 151 2 276 4 278 2 2 36 4 75 4 l71 0 0 -277z"/>
<path d="M1967 3952 c-15 -16 -17 -45 -17 -203 0 -131 4 -189 12 -197 16 -16
220 -16 236 0 8 8 12 67 12 199 0 157 -3 190 -16 203 -12 12 -38 16 -113 16
-82 0 -101 -3 -114 -18z m143 -202 l0 -110 -25 0 -25 0 0 110 0 110 25 0 25 0
0 -110z"/>
<path d="M2457 3952 c-15 -16 -17 -45 -17 -203 0 -131 4 -189 12 -197 19 -19
222 -16 242 4 13 13 16 45 16 195 0 226 4 219 -138 219 -83 0 -102 -3 -115
-18z m143 -202 l0 -110 -25 0 -25 0 0 110 0 110 25 0 25 0 0 -110z"/>
<path d="M2946 3954 c-13 -13 -16 -46 -16 -203 0 -132 4 -191 12 -199 16 -16
220 -16 236 0 8 8 12 67 12 199 0 157 -3 190 -16 203 -12 12 -38 16 -114 16
-76 0 -102 -4 -114 -16z m137 -201 l-1 -108 -26 -3 -26 -3 0 110 0 111 28 0
27 0 -2 -107z"/>
<path d="M1966 3354 c-13 -13 -16 -46 -16 -203 0 -132 4 -191 12 -199 16 -16
220 -16 236 0 8 8 12 67 12 199 0 157 -3 190 -16 203 -12 12 -38 16 -114 16
-76 0 -102 -4 -114 -16z m144 -199 l0 -105 -25 0 -25 0 0 105 0 105 25 0 25 0
0 -105z"/>
<path d="M2457 3352 c-25 -27 -25 -372 -1 -396 20 -20 213 -23 232 -4 9 9 12
68 12 205 0 227 9 213 -133 213 -78 0 -97 -3 -110 -18z m143 -196 c0 -103 0
-104 -25 -108 l-25 -5 0 108 0 109 25 0 25 0 0 -104z"/>
<path d="M2948 3359 c-16 -9 -18 -30 -18 -202 0 -137 3 -196 12 -205 16 -16
220 -16 236 0 9 9 12 68 12 205 0 180 -1 193 -19 203 -25 13 -201 13 -223 -1z
m137 -204 l0 -105 -27 0 -28 0 0 105 0 105 28 0 28 0 -1 -105z"/>
<path d="M2459 1217 c-116 -61 -126 -252 -17 -325 80 -52 197 -37 239 32 24
40 24 43 -8 51 -20 5 -31 1 -42 -13 -39 -48 -104 -55 -150 -16 -86 72 -51 217
56 231 32 4 45 0 70 -21 30 -25 93 -37 93 -17 0 5 -12 24 -27 42 -52 62 -137
76 -214 36z"/>
<path d="M2760 1056 l0 -186 35 0 34 0 3 117 3 117 80 -117 c74 -108 82 -117
113 -117 l32 0 0 185 0 185 -30 0 -29 0 -3 -125 -3 -126 -86 123 c-76 109 -89
123 -117 126 l-32 3 0 -185z"/>
<path d="M3140 1055 l0 -185 33 0 32 0 -3 60 -4 60 39 0 c103 1 161 37 170
108 13 98 -44 141 -184 142 l-83 0 0 -185z m178 109 c15 -10 22 -25 22 -49 0
-44 -29 -65 -92 -65 l-48 0 0 65 0 65 48 0 c27 0 57 -7 70 -16z"/>
<path d="M3540 1097 c0 -132 -2 -145 -20 -162 -18 -17 -25 -17 -56 -6 -20 7
-37 11 -38 9 -6 -6 -26 -47 -26 -51 0 -10 64 -27 99 -27 20 0 47 7 60 16 41
29 51 72 51 224 l0 140 -35 0 -35 0 0 -143z"/>
<path d="M1908 1124 c-15 -8 -35 -28 -43 -44 -19 -37 -19 -123 0 -160 38 -73
166 -81 210 -14 14 22 14 24 -10 30 -17 4 -32 1 -44 -10 -24 -22 -67 -20 -91
4 -41 41 -28 50 70 50 96 0 94 -1 90 55 -3 42 -16 63 -53 85 -38 23 -91 25
-129 4z m111 -60 c11 -15 18 -30 15 -35 -3 -5 -32 -9 -65 -9 -64 0 -71 8 -43
48 22 31 67 29 93 -4z"/>
<path d="M2166 1013 c1 -28 2 -28 72 -31 l72 -3 0 31 0 30 -73 0 -73 0 2 -27z"/>
</g>
</svg>
