<?xml version="1.0" standalone="no"?>
<!DOCTYPE svg PUBLIC "-//W3C//DTD SVG 20010904//EN"
 "http://www.w3.org/TR/2001/REC-SVG-20010904/DTD/svg10.dtd">
<svg version="1.0" xmlns="http://www.w3.org/2000/svg"
 width="500.000000pt" height="500.000000pt" viewBox="0 0 500.000000 500.000000"
 preserveAspectRatio="xMidYMid meet">

<g transform="translate(0.000000,500.000000) scale(0.100000,-0.100000)"
fill="#000000" stroke="none">
<path d="M1113 4015 c-60 -30 -100 -78 -119 -143 -21 -67 -21 -1657 0 -1724
19 -65 59 -113 119 -143 l51 -25 1299 0 c957 0 1310 3 1338 12 51 15 114 69
142 122 l22 41 3 825 c2 585 0 840 -8 877 -8 39 -23 65 -56 102 -79 87 35 81
-1439 81 l-1301 0 -51 -25z m2677 -96 c76 -43 71 15 68 -921 l-3 -836 -25 -27
c-53 -58 18 -55 -1360 -55 -1380 0 -1296 -3 -1350 55 l-25 27 -3 836 c-3 936
-7 883 67 922 35 18 84 19 1315 20 l1278 0 38 -21z"/>
<path d="M1842 3680 c-219 -46 -338 -300 -237 -506 32 -65 118 -146 180 -170
l46 -17 -69 -18 c-231 -58 -412 -246 -468 -485 -9 -39 -14 -83 -10 -98 l6 -26
628 2 627 3 3 43 c2 23 -4 70 -13 104 -56 221 -236 401 -459 458 -70 18 -70
18 -41 29 92 34 172 107 211 195 37 80 38 182 5 269 -29 74 -110 158 -184 193
-62 28 -158 38 -225 24z m178 -121 c118 -53 175 -178 138 -301 -15 -52 -78
-121 -133 -148 -56 -27 -142 -29 -203 -5 -56 23 -125 101 -142 160 -56 200
152 379 340 294z m36 -693 c140 -37 275 -148 337 -277 20 -41 39 -86 43 -101
l6 -28 -521 0 c-602 0 -547 -14 -480 119 69 139 198 247 340 285 69 19 209 20
275 2z"/>
<path d="M2767 3413 c-12 -11 -8 -68 5 -81 9 -9 115 -12 414 -12 436 0 434 0
434 54 0 46 -1 46 -435 46 -227 0 -415 -3 -418 -7z"/>
<path d="M2767 3053 c-12 -11 -8 -68 5 -81 9 -9 115 -12 414 -12 353 0 405 2
418 16 17 16 20 41 10 68 -5 14 -52 16 -423 16 -230 0 -421 -3 -424 -7z"/>
<path d="M2767 2703 c-11 -11 -8 -68 5 -81 9 -9 86 -12 285 -12 l274 0 25 25
c24 24 25 28 11 48 -14 22 -18 22 -304 25 -159 1 -292 -1 -296 -5z"/>
<path d="M2397 1219 c-20 -11 -49 -38 -65 -61 -23 -35 -27 -52 -27 -108 0 -56
4 -73 28 -109 65 -99 230 -108 287 -16 25 41 25 42 -7 48 -21 4 -36 -2 -61
-24 -39 -34 -82 -38 -128 -10 -64 39 -71 148 -15 205 40 40 106 44 143 9 31
-29 91 -33 81 -5 -28 80 -150 117 -236 71z"/>
<path d="M2700 1056 l0 -186 30 0 30 0 0 60 0 60 36 0 c56 0 121 20 144 45 27
28 37 95 20 134 -21 51 -54 65 -162 69 l-98 4 0 -186z m178 108 c15 -10 22
-25 22 -49 0 -44 -29 -65 -92 -65 l-48 0 0 65 0 65 48 0 c27 0 57 -7 70 -16z"/>
<path d="M3020 1055 l0 -185 35 0 35 0 0 74 0 74 73 0 c71 -1 72 0 73 26 1 26
1 26 -72 26 l-74 0 0 55 0 55 90 0 90 0 0 30 0 30 -125 0 -125 0 0 -185z"/>
<path d="M1845 1130 c-44 -18 -69 -58 -73 -118 -3 -48 0 -63 20 -92 13 -19 35
-40 48 -47 52 -27 136 -7 160 37 9 17 7 20 -15 26 -17 4 -32 1 -44 -10 -25
-23 -64 -20 -89 7 -39 41 -30 47 73 47 l95 0 0 30 c0 42 -28 94 -60 114 -30
17 -82 20 -115 6z m81 -48 c16 -11 35 -50 27 -55 -17 -10 -116 -1 -120 10 -11
31 62 66 93 45z"/>
<path d="M2080 1010 l0 -30 85 0 85 0 0 30 0 30 -85 0 -85 0 0 -30z"/>
</g>
</svg>
