<?xml version="1.0" standalone="no"?>
<!DOCTYPE svg PUBLIC "-//W3C//DTD SVG 20010904//EN"
 "http://www.w3.org/TR/2001/REC-SVG-20010904/DTD/svg10.dtd">
<svg version="1.0" xmlns="http://www.w3.org/2000/svg"
 width="500.000000pt" height="500.000000pt" viewBox="0 0 500.000000 500.000000"
 preserveAspectRatio="xMidYMid meet">

<g transform="translate(0.000000,500.000000) scale(0.100000,-0.100000)"
fill="#000000" stroke="none">
<path d="M1395 4455 c-47 -17 -100 -73 -109 -117 -3 -17 -6 -594 -6 -1282 l0
-1252 23 -44 c16 -33 34 -51 67 -67 l44 -23 1077 0 1076 0 43 23 c30 16 51 37
67 67 l23 43 0 1011 c0 600 -4 1024 -9 1044 -7 23 -87 112 -268 298 -142 146
-273 275 -293 287 l-35 22 -830 2 c-697 2 -836 0 -870 -12z m1655 -349 c0
-241 1 -255 21 -279 l20 -27 252 -2 252 -3 3 -983 2 -983 -29 -30 -29 -29
-1050 0 c-1046 0 -1049 0 -1076 21 l-26 20 0 1256 c0 1155 1 1258 17 1275 15
17 54 18 830 18 l813 0 0 -254z m290 -21 l185 -185 -188 0 -187 0 0 185 c0
102 1 185 3 185 1 0 85 -83 187 -185z"/>
<path d="M2779 3624 c-9 -11 -12 -38 -11 -79 l2 -63 -37 -12 c-101 -32 -161
-106 -170 -210 -5 -51 -2 -67 21 -114 37 -75 83 -106 224 -151 96 -31 124 -45
155 -75 33 -34 37 -43 37 -88 0 -88 -66 -142 -173 -142 -82 0 -135 32 -170
104 -29 57 -29 57 -70 54 -38 -3 -42 -6 -45 -32 -9 -77 64 -170 164 -211 l59
-24 3 -63 c4 -71 13 -88 52 -88 39 0 49 17 52 89 l3 64 45 11 c137 35 219 161
190 292 -25 109 -81 155 -260 211 -145 46 -170 67 -170 146 0 45 5 61 25 86
32 38 83 55 147 49 61 -6 96 -31 128 -91 24 -46 26 -47 71 -47 54 0 63 11 48
63 -22 81 -105 152 -201 172 -27 5 -28 7 -28 75 0 58 -3 71 -19 80 -28 15 -57
12 -72 -6z"/>
<path d="M1775 3518 c-3 -7 -4 -220 -3 -473 l3 -460 50 0 50 0 3 188 2 187 98
0 97 0 84 -163 c114 -219 112 -217 167 -217 33 0 46 4 51 17 5 11 -25 78 -85
194 -51 97 -92 179 -92 182 0 3 20 17 44 31 80 47 122 115 133 216 12 119 -47
224 -155 277 -55 27 -62 28 -249 31 -155 3 -194 1 -198 -10z m395 -120 c64
-33 84 -66 88 -146 4 -85 -22 -134 -87 -169 -39 -20 -58 -23 -168 -23 l-123 0
0 180 0 180 123 0 c108 0 128 -3 167 -22z"/>
<path d="M1970 1055 l0 -185 35 0 35 0 1 123 c0 98 3 118 12 104 7 -10 44 -64
83 -120 64 -92 74 -102 105 -105 l34 -3 0 186 0 185 -32 0 -33 0 0 -127 c-1
-104 -3 -125 -13 -111 -7 10 -46 67 -87 128 -69 101 -77 109 -107 110 l-33 0
0 -185z"/>
<path d="M2350 1055 l0 -185 33 0 32 0 0 72 0 73 72 0 c73 0 73 0 73 27 0 27
-1 27 -72 30 l-73 3 -3 53 -3 52 90 0 91 0 0 30 0 30 -120 0 -120 0 0 -185z"/>
<path d="M2924 1130 c-87 -35 -95 -193 -14 -248 45 -31 118 -27 155 8 14 13
25 27 25 31 0 17 -41 20 -62 5 -44 -31 -93 -15 -111 37 -6 15 2 17 88 17 l95
0 0 35 c0 93 -89 151 -176 115z m100 -62 c28 -40 21 -48 -44 -48 -49 0 -60 3
-60 17 0 49 76 72 104 31z"/>
<path d="M2632 1013 c3 -28 3 -28 83 -28 80 0 80 0 83 28 l3 27 -86 0 -86 0 3
-27z"/>
</g>
</svg>
