<?xml version="1.0" standalone="no"?>
<!DOCTYPE svg PUBLIC "-//W3C//DTD SVG 20010904//EN"
 "http://www.w3.org/TR/2001/REC-SVG-20010904/DTD/svg10.dtd">
<svg version="1.0" xmlns="http://www.w3.org/2000/svg"
 width="500.000000pt" height="500.000000pt" viewBox="0 0 500.000000 500.000000"
 preserveAspectRatio="xMidYMid meet">

<g transform="translate(0.000000,500.000000) scale(0.100000,-0.100000)"
fill="#000000" stroke="none">
<path d="M2436 4720 c-84 -80 -299 -200 -474 -266 -101 -39 -285 -82 -447
-105 -82 -11 -158 -25 -167 -30 -10 -5 -21 -21 -24 -35 -12 -48 4 -674 20
-787 32 -227 88 -419 178 -607 176 -371 469 -669 841 -856 88 -44 118 -54 158
-54 60 0 152 37 282 114 437 258 739 667 860 1166 51 207 59 292 64 671 l5
356 -26 20 c-15 12 -49 24 -79 28 -198 25 -465 88 -582 138 -200 85 -338 165
-436 253 -70 62 -102 61 -173 -6z m176 -133 c97 -73 283 -171 413 -217 147
-51 351 -97 558 -125 l47 -6 0 -274 c0 -370 -19 -542 -86 -771 -112 -387 -364
-732 -696 -954 -117 -79 -291 -170 -322 -170 -28 0 -242 116 -338 183 -457
319 -710 785 -758 1393 -6 82 -10 250 -8 374 l3 225 35 3 c152 11 405 66 566
123 139 48 429 210 474 264 7 8 16 15 20 15 5 0 46 -28 92 -63z"/>
<path d="M2685 3490 l-310 -310 -150 150 c-102 102 -157 150 -172 150 -26 0
-53 -34 -46 -59 8 -29 347 -361 369 -361 22 0 694 667 694 688 0 29 -21 52
-48 52 -23 0 -82 -54 -337 -310z"/>
<path d="M1305 1565 c-22 -8 -41 -15 -42 -15 -1 0 -9 -13 -18 -30 -38 -74 -1
-139 94 -159 75 -16 91 -27 91 -61 0 -35 -23 -50 -74 -50 -35 0 -76 27 -76 51
0 17 -55 6 -58 -13 -2 -9 10 -31 27 -50 29 -32 31 -33 110 -33 75 0 83 2 108
28 22 22 28 37 28 71 0 57 -23 82 -94 102 -80 23 -106 37 -109 61 -7 50 85 75
123 33 10 -11 31 -20 47 -20 32 0 32 0 16 35 -23 50 -107 74 -173 50z"/>
<path d="M1625 1470 c-11 -4 -31 -20 -45 -35 -22 -23 -25 -36 -25 -101 0 -66
3 -76 26 -99 50 -50 144 -50 188 1 l24 28 -27 7 c-20 6 -32 3 -47 -12 -35 -35
-90 -20 -107 31 l-11 30 95 0 94 0 0 35 c0 89 -85 148 -165 115z m94 -66 c12
-15 21 -31 21 -35 0 -5 -29 -9 -65 -9 -54 0 -65 3 -65 17 0 52 75 71 109 27z"/>
<path d="M1898 1464 c-82 -44 -76 -222 8 -254 39 -15 69 -12 98 11 l26 20 0
-31 c0 -52 -16 -70 -59 -70 -22 0 -44 6 -51 15 -12 14 -70 22 -70 9 0 -3 5
-14 10 -25 25 -45 122 -64 179 -35 44 23 51 53 51 219 l0 153 -27 -2 c-19 -1
-28 -6 -27 -18 2 -21 -2 -20 -33 4 -30 24 -67 25 -105 4z m109 -56 c33 -31 32
-100 -2 -133 -50 -51 -105 -16 -105 65 0 81 56 116 107 68z"/>
<path d="M2162 1364 c3 -103 5 -115 27 -138 31 -33 87 -35 125 -5 l26 20 0
-20 c0 -17 6 -21 30 -21 l30 0 0 138 0 138 -30 2 -30 2 0 -94 c0 -90 -1 -95
-26 -115 -33 -26 -49 -26 -74 -1 -17 17 -20 33 -20 113 l0 92 -31 1 -31 1 4
-113z"/>
<path d="M2470 1338 l0 -138 30 0 30 0 0 85 c0 78 2 88 25 110 13 14 36 25 50
25 21 0 25 5 25 30 0 25 -4 30 -25 30 -15 0 -36 -11 -50 -26 l-25 -27 0 24 c0
20 -5 24 -30 24 l-30 0 0 -137z"/>
<path d="M2718 1465 c-52 -29 -63 -75 -18 -75 20 0 30 5 30 15 0 20 46 30 76
16 13 -6 24 -17 24 -26 0 -8 0 -18 0 -22 0 -4 -17 -9 -37 -10 -90 -8 -133 -36
-133 -87 0 -69 94 -103 154 -55 l26 20 0 -20 c0 -17 6 -21 31 -21 l31 0 -4
110 c-3 103 -5 112 -30 136 -33 33 -108 43 -150 19z m122 -150 c0 -4 -7 -19
-15 -35 -16 -32 -51 -46 -84 -35 -26 8 -28 50 -3 64 18 11 102 15 102 6z"/>
<path d="M2960 1338 l0 -138 30 0 30 0 0 89 c0 102 15 134 65 134 45 0 55 -25
55 -130 l0 -93 30 0 30 0 0 111 c0 109 0 111 -29 140 -17 17 -40 29 -55 29
-29 0 -76 -19 -76 -32 0 -4 -4 -8 -10 -8 -5 0 -10 8 -10 18 0 12 -8 17 -30 17
l-30 0 0 -137z"/>
<path d="M3330 1467 c-91 -46 -93 -215 -3 -257 25 -12 33 -21 33 -42 0 -23 4
-28 26 -28 31 0 28 -23 -3 -28 -12 -2 -24 -10 -27 -18 -7 -17 35 -20 65 -4 26
15 25 64 -2 84 -21 14 -21 15 13 29 37 16 81 64 72 78 -8 14 -52 11 -61 -5
-15 -24 -50 -37 -77 -26 -32 12 -46 39 -46 88 0 81 75 123 117 66 15 -20 24
-24 46 -19 26 7 26 8 12 36 -28 52 -108 75 -165 46z"/>
<path d="M3611 1467 c-22 -13 -50 -51 -51 -69 0 -17 56 -7 68 12 18 30 67 27
88 -5 9 -14 14 -28 11 -31 -3 -3 -29 -9 -59 -13 -61 -8 -93 -23 -108 -51 -15
-29 -12 -55 11 -84 16 -21 29 -26 63 -26 23 0 51 7 62 15 25 19 34 19 34 0 0
-10 10 -15 31 -15 l31 0 -4 110 c-3 103 -5 111 -30 136 -32 32 -109 43 -147
21z m119 -162 c0 -24 -46 -65 -73 -65 -27 0 -47 17 -47 42 0 24 27 37 78 38
31 0 42 -4 42 -15z"/>
<path d="M2381 922 c-35 -50 8 -60 54 -12 21 22 25 30 13 30 -9 0 -23 3 -31 6
-9 3 -23 -6 -36 -24z"/>
<path d="M2826 937 c-26 -19 -13 -57 20 -57 28 0 42 25 27 48 -13 22 -26 24
-47 9z"/>
<path d="M1710 796 c0 -156 -6 -176 -55 -176 -24 0 -55 23 -55 41 0 5 -13 9
-30 9 -34 0 -36 -9 -15 -50 20 -39 48 -52 108 -52 42 0 54 4 81 31 l31 31 3
155 4 155 -36 0 -36 0 0 -144z"/>
<path d="M2690 868 l0 -71 -26 24 c-38 36 -95 33 -136 -8 -27 -27 -32 -41 -36
-91 -5 -63 9 -101 48 -137 27 -25 91 -26 117 -2 24 21 33 22 33 2 0 -10 10
-15 30 -15 l30 0 0 185 0 185 -30 0 -30 0 0 -72z m-33 -92 c23 -20 28 -32 28
-71 0 -39 -5 -51 -28 -71 -35 -30 -52 -30 -82 1 -19 18 -25 35 -25 70 0 35 6
52 25 70 30 31 47 31 82 1z"/>
<path d="M2271 839 c-13 -5 -30 -17 -37 -27 -12 -16 -13 -15 -14 6 0 18 -6 22
-30 22 l-30 0 0 -135 0 -135 30 0 30 0 0 85 c0 78 2 88 25 110 13 14 36 25 50
25 23 0 26 4 23 27 -3 31 -14 35 -47 22z"/>
<path d="M3010 832 c-42 -20 -70 -72 -70 -127 0 -89 65 -152 145 -140 40 6 95
47 95 71 0 23 -44 21 -67 -3 -48 -50 -113 -8 -113 72 0 81 66 122 114 70 13
-14 33 -25 45 -25 52 0 -1 82 -60 94 -45 9 -50 8 -89 -12z"/>
<path d="M3293 835 c-30 -13 -53 -41 -53 -64 0 -19 49 -12 70 9 26 26 55 25
81 -1 30 -30 19 -43 -42 -50 -62 -7 -94 -21 -109 -49 -16 -30 -12 -57 14 -87
20 -22 32 -28 65 -27 23 1 50 9 60 18 22 20 31 20 31 1 0 -10 10 -15 30 -15
l30 0 0 98 c0 112 -10 140 -60 164 -42 21 -74 22 -117 3z m111 -167 c-3 -13
-13 -31 -22 -40 -26 -30 -92 -21 -92 13 0 26 38 49 83 49 35 0 38 -2 31 -22z"/>
<path d="M1850 740 c0 -105 13 -151 45 -164 33 -12 83 -6 109 15 l26 20 0 -20
c0 -17 6 -21 30 -21 l30 0 0 135 0 135 -30 0 -30 0 0 -85 c0 -78 -2 -88 -25
-110 -29 -30 -56 -32 -78 -7 -13 15 -17 39 -17 110 l0 92 -30 0 -30 0 0 -100z"/>
<path d="M2370 705 l0 -135 30 0 30 0 0 135 0 135 -30 0 -30 0 0 -135z"/>
<path d="M2820 705 l0 -135 30 0 30 0 0 135 0 135 -30 0 -30 0 0 -135z"/>
</g>
</svg>
