<?xml version="1.0" standalone="no"?>
<!DOCTYPE svg PUBLIC "-//W3C//DTD SVG 20010904//EN"
 "http://www.w3.org/TR/2001/REC-SVG-20010904/DTD/svg10.dtd">
<svg version="1.0" xmlns="http://www.w3.org/2000/svg"
 width="500.000000pt" height="500.000000pt" viewBox="0 0 500.000000 500.000000"
 preserveAspectRatio="xMidYMid meet">

<g transform="translate(0.000000,500.000000) scale(0.100000,-0.100000)"
fill="#000000" stroke="none">
<path d="M2365 4529 c-256 -34 -491 -152 -681 -343 -192 -192 -304 -413 -337
-668 l-11 -87 -45 -17 c-52 -20 -118 -83 -146 -139 -18 -37 -20 -61 -20 -311
l0 -270 30 -60 c22 -43 43 -68 79 -91 66 -45 113 -55 235 -51 129 4 171 21
212 87 l29 45 0 339 c0 352 0 355 -45 409 -20 24 -21 32 -13 85 58 377 307
657 665 745 121 29 313 29 428 -1 297 -78 529 -294 625 -579 17 -52 34 -124
37 -161 5 -62 3 -71 -23 -111 l-29 -43 -3 -326 c-3 -277 -1 -332 13 -366 19
-50 57 -88 108 -110 l38 -16 -26 -48 c-67 -123 -181 -227 -316 -291 -74 -34
-206 -70 -258 -70 -33 1 -39 5 -66 53 -20 35 -46 61 -79 82 -48 29 -52 30
-202 33 -139 3 -157 1 -203 -19 -95 -40 -149 -132 -138 -231 10 -83 52 -144
127 -184 30 -16 58 -19 200 -19 163 0 166 0 213 28 49 29 91 82 102 128 6 24
12 27 69 33 209 21 436 139 556 289 27 34 66 97 87 139 l38 77 41 1 c108 1
216 69 260 165 23 48 24 58 24 310 0 252 -1 261 -24 311 -29 63 -85 118 -142
140 -47 18 -45 13 -59 129 -28 214 -156 459 -334 636 -176 175 -361 277 -598
329 -113 25 -311 34 -418 19z m341 -104 c229 -40 421 -136 587 -294 185 -176
304 -411 330 -648 l5 -43 -57 0 -57 0 -13 78 c-31 187 -125 365 -271 512 -196
199 -418 290 -703 290 -137 0 -265 -22 -365 -63 -258 -104 -471 -325 -557
-577 -19 -56 -55 -210 -55 -236 0 -2 -25 -4 -56 -4 l-56 0 6 58 c47 397 332
746 721 882 170 59 363 75 541 45z m-1119 -1109 l28 -24 0 -327 0 -327 -29
-25 c-28 -24 -34 -25 -141 -21 -99 3 -116 6 -148 28 -71 48 -77 75 -77 344 0
213 2 241 19 274 40 78 90 101 223 102 88 0 99 -2 125 -24z m2162 -2 c87 -48
86 -43 89 -339 2 -254 2 -261 -20 -299 -37 -64 -91 -86 -210 -86 -97 0 -100 1
-129 29 l-29 29 0 317 0 317 29 29 c29 28 33 29 126 29 86 0 103 -3 144 -26z
m-1049 -1170 c52 -21 80 -66 80 -129 0 -42 -5 -52 -39 -86 l-39 -39 -147 0
c-118 0 -152 3 -175 16 -90 53 -81 198 14 240 46 20 254 19 306 -2z"/>
<path d="M1712 1360 c-71 -17 -109 -88 -78 -148 15 -30 58 -53 126 -67 97 -20
90 -105 -8 -105 -34 0 -45 5 -64 30 -13 18 -31 30 -44 30 -31 0 -35 -10 -19
-47 21 -49 74 -69 168 -64 18 0 42 14 63 35 67 67 35 150 -66 176 -84 21 -100
30 -100 59 0 15 5 32 12 39 20 20 85 15 108 -8 24 -24 70 -27 70 -4 0 21 -54
74 -77 74 -10 0 -27 2 -38 4 -11 3 -35 1 -53 -4z"/>
<path d="M3138 1333 c-10 -3 -18 -16 -20 -36 -2 -24 -8 -33 -25 -35 -33 -5
-31 -42 2 -42 25 0 25 0 25 -98 0 -122 13 -139 103 -133 23 1 23 41 -1 41 -34
0 -42 21 -42 107 l0 83 30 0 c23 0 30 4 30 20 0 16 -7 20 -30 20 -28 0 -30 2
-30 40 0 40 -4 43 -42 33z"/>
<path d="M1950 1165 c0 -110 12 -156 45 -169 33 -12 83 -6 109 15 l26 20 0
-20 c0 -17 6 -21 30 -21 l30 0 0 138 0 137 -30 1 -30 1 0 -93 c0 -88 -1 -94
-26 -113 -33 -26 -49 -26 -74 -1 -17 17 -20 33 -20 113 l0 93 -30 2 -30 2 0
-105z"/>
<path d="M2260 1074 l0 -194 30 0 30 0 0 77 0 77 20 -22 c25 -27 94 -30 129
-6 73 52 65 198 -14 250 -30 20 -88 14 -116 -12 -18 -16 -19 -16 -19 2 0 14
-8 19 -30 20 l-30 1 0 -193z m179 120 c25 -32 28 -100 5 -132 -20 -29 -74 -30
-100 -1 -29 32 -26 115 5 140 33 27 66 24 90 -7z"/>
<path d="M2634 1254 c-43 -21 -64 -62 -64 -126 0 -92 42 -140 124 -140 82 0
130 50 130 136 0 66 -26 113 -69 132 -44 18 -82 18 -121 -2z m107 -52 c18 -15
23 -29 23 -71 1 -46 -3 -56 -27 -77 -34 -29 -47 -30 -81 -3 -22 17 -26 28 -26
73 0 84 55 123 111 78z"/>
<path d="M2880 1128 l0 -138 33 0 34 0 -5 55 c-8 103 19 165 73 165 21 0 25 5
25 30 0 39 -26 40 -70 3 l-32 -26 4 23 c3 20 -1 23 -30 24 l-32 1 0 -137z"/>
<path d="M3350 1257 c-62 -31 -88 -125 -56 -201 20 -48 51 -66 114 -66 47 0
57 4 85 32 l32 32 -25 6 c-17 4 -33 0 -49 -12 -32 -25 -57 -23 -86 7 -47 46
-36 55 71 55 l97 0 -7 41 c-9 56 -21 76 -59 99 -37 23 -81 25 -117 7z m100
-57 c38 -38 27 -50 -45 -50 -51 0 -65 3 -65 15 0 23 37 55 65 55 14 0 34 -9
45 -20z"/>
<path d="M2853 733 c-19 -7 -16 -53 3 -60 18 -7 45 6 51 24 4 11 -23 44 -35
42 -4 0 -13 -3 -19 -6z"/>
<path d="M1090 545 l0 -185 35 0 35 0 0 80 0 80 85 0 85 0 0 -80 0 -80 35 0
35 0 0 185 0 185 -35 0 -35 0 0 -80 0 -80 -85 0 -85 0 0 80 0 80 -35 0 -35 0
0 -185z"/>
<path d="M3730 666 l0 -64 -37 19 c-89 45 -170 -25 -161 -138 6 -64 31 -103
81 -122 33 -12 40 -11 77 7 31 15 40 16 40 6 0 -9 11 -14 30 -14 l30 0 0 185
0 185 -30 0 -30 0 0 -64z m-45 -82 c37 -15 56 -90 34 -137 -24 -54 -99 -54
-119 -2 -32 83 18 164 85 139z"/>
<path d="M1883 630 c-12 -5 -26 -17 -32 -27 -10 -16 -10 -16 -11 5 0 18 -6 22
-29 22 l-30 0 -3 -135 -3 -135 33 0 32 0 0 93 c0 100 12 127 56 127 37 0 44
-20 44 -122 l0 -98 33 0 32 0 0 94 c0 104 10 126 56 126 40 0 49 -24 49 -129
l0 -91 30 0 30 0 0 100 c0 113 -14 154 -57 171 -34 13 -76 3 -99 -22 -17 -19
-18 -19 -38 0 -26 24 -64 33 -93 21z"/>
<path d="M2293 625 c-17 -7 -39 -27 -48 -44 -15 -31 -15 -31 11 -31 14 0 37 9
51 20 14 11 34 20 44 20 23 0 49 -26 49 -49 0 -15 -10 -19 -55 -23 -69 -6
-109 -33 -113 -76 -4 -43 12 -68 52 -82 34 -11 44 -8 120 28 5 3 6 -3 3 -12
-5 -13 0 -16 23 -16 l30 0 0 106 c0 58 -5 114 -11 126 -12 22 -67 48 -101 48
-13 -1 -37 -7 -55 -15z m107 -165 c0 -33 -37 -62 -73 -58 -27 2 -33 8 -35 31
-4 31 20 45 76 46 26 1 32 -3 32 -19z"/>
<path d="M2633 630 c-12 -5 -26 -17 -32 -27 -10 -16 -10 -16 -11 5 0 18 -6 22
-30 22 l-30 0 0 -135 0 -135 30 0 30 0 0 88 c0 101 14 132 59 132 49 0 61 -25
61 -128 l0 -92 30 0 30 0 0 100 c0 117 -13 152 -61 169 -37 13 -46 13 -76 1z"/>
<path d="M3300 622 c-19 -9 -40 -28 -47 -42 -12 -23 -11 -25 12 -28 13 -2 37
6 54 19 35 26 78 20 90 -14 12 -31 5 -37 -40 -37 -104 0 -165 -77 -109 -138
29 -31 100 -34 131 -6 20 18 29 18 29 -1 0 -10 10 -15 28 -15 l27 0 -5 113
c-6 127 -12 141 -69 157 -49 14 -61 13 -101 -8z m115 -164 c-17 -58 -106 -80
-113 -29 -5 33 21 51 76 51 40 0 43 -2 37 -22z"/>
<path d="M3921 622 c-54 -27 -76 -64 -75 -128 0 -64 22 -100 78 -128 99 -49
203 49 176 167 -10 46 -34 75 -77 93 -42 18 -61 18 -102 -4z m96 -54 c27 -30
35 -66 23 -109 -20 -71 -99 -78 -126 -12 -39 92 42 187 103 121z"/>
<path d="M1470 514 c5 -107 7 -117 29 -135 31 -25 91 -25 119 1 12 11 24 20
27 20 3 0 5 -9 5 -20 0 -16 7 -20 30 -20 l30 0 0 135 0 135 -30 0 -30 0 0 -85
c0 -78 -2 -88 -25 -110 -28 -29 -57 -32 -79 -9 -12 12 -16 37 -16 110 l0 94
-32 0 -33 0 5 -116z"/>
<path d="M2840 495 l0 -135 30 0 30 0 0 135 0 135 -30 0 -30 0 0 -135z"/>
<path d="M2970 604 c0 -25 1 -26 70 -22 39 2 70 1 70 -1 0 -2 -31 -40 -68 -85
-38 -44 -72 -93 -76 -108 l-6 -28 115 0 115 0 0 25 c0 23 -3 24 -70 27 l-71 3
70 85 c40 48 70 95 71 108 0 21 -2 22 -110 22 l-110 0 0 -26z"/>
</g>
</svg>
