<svg viewBox="0 0 32 32" width="100%" height="100%" xmlns="http://www.w3.org/2000/svg" fill="green">
  <path d="M16.001 2.934c-7.236 0-13.067 5.83-13.067 13.066 0 2.295.6 4.537 1.738 6.51L2.56 29.067l6.795-2.035c1.907 1.04 4.064 1.59 6.645 1.59h.001c7.236 0 13.066-5.83 13.066-13.067 0-3.493-1.362-6.777-3.835-9.25a13.037 13.037 0 00-9.231-3.933zm0 24.668a11.59 11.59 0 01-5.877-1.562l-.42-.24-4.032 1.208 1.214-3.926-.267-.452a11.57 11.57 0 01-1.731-6.092c0-6.396 5.205-11.6 11.601-11.6 3.099 0 6.01 1.21 8.203 3.403a11.548 11.548 0 013.397 8.196c0 6.396-5.204 11.601-11.601 11.601zm6.568-8.706c-.359-.18-2.127-1.05-2.46-1.17-.332-.12-.574-.18-.815.18s-.933 1.17-1.144 1.41c-.21.24-.418.27-.777.09-.36-.18-1.518-.56-2.89-1.78-1.067-.952-1.787-2.124-1.996-2.484-.21-.36-.022-.555.158-.734.162-.162.36-.42.54-.63.18-.21.24-.36.36-.6.12-.24.06-.45-.03-.63-.09-.18-.815-1.962-1.116-2.688-.294-.708-.594-.612-.815-.624-.21-.012-.45-.012-.69-.012-.24 0-.63.09-.96.45s-1.26 1.23-1.26 3c 0 1.77 1.29 3.48 1.47 3.72.18.24 2.536 3.87 6.15 5.43.86.372 1.53.594 2.052.762.861.27 1.644.232 2.265.141.69-.102 2.127-.87 2.43-1.71.3-.84.3-1.56.21-1.71-.09-.15-.33-.24-.69-.42z"></path>
</svg>
